<svg xmlns="http://www.w3.org/2000/svg" viewBox="0 0 64 64" shape-rendering="crispEdges" role="img" aria-label="Candlestick chart pixel art">
  <rect width="64" height="64" fill="#070b17" />
  <rect x="1" y="1" width="62" height="62" fill="#0c1224" />
  <rect x="2" y="2" width="60" height="60" fill="#0e1830" />
  <rect x="4" y="4" width="56" height="56" fill="#0a1428" />

  <!-- Grid -->
  <rect x="6" y="6" width="52" height="1" fill="#101d35" />
  <rect x="6" y="12" width="52" height="1" fill="#101d35" />
  <rect x="6" y="18" width="52" height="1" fill="#101d35" />
  <rect x="6" y="24" width="52" height="1" fill="#101d35" />
  <rect x="6" y="30" width="52" height="1" fill="#101d35" />
  <rect x="6" y="36" width="52" height="1" fill="#101d35" />
  <rect x="6" y="42" width="52" height="1" fill="#101d35" />
  <rect x="6" y="48" width="52" height="1" fill="#101d35" />
  <rect x="6" y="54" width="52" height="1" fill="#101d35" />
  <rect x="6" y="6" width="1" height="49" fill="#101d35" />
  <rect x="12" y="6" width="1" height="49" fill="#101d35" />
  <rect x="18" y="6" width="1" height="49" fill="#101d35" />
  <rect x="24" y="6" width="1" height="49" fill="#101d35" />
  <rect x="30" y="6" width="1" height="49" fill="#101d35" />
  <rect x="36" y="6" width="1" height="49" fill="#101d35" />
  <rect x="42" y="6" width="1" height="49" fill="#101d35" />
  <rect x="48" y="6" width="1" height="49" fill="#101d35" />
  <rect x="54" y="6" width="1" height="49" fill="#101d35" />

  <!-- Baseline highlight -->
  <rect x="6" y="50" width="52" height="2" fill="#0f233d" />
  <rect x="6" y="50" width="52" height="1" fill="#183459" />

  <!-- Candles: wicks -->
  <rect x="12" y="32" width="1" height="16" fill="#22c55e" />
  <rect x="18" y="20" width="1" height="26" fill="#22c55e" />
  <rect x="24" y="26" width="1" height="18" fill="#dc2626" />
  <rect x="30" y="16" width="1" height="30" fill="#22c55e" />
  <rect x="36" y="22" width="1" height="24" fill="#dc2626" />
  <rect x="42" y="12" width="1" height="34" fill="#22c55e" />
  <rect x="48" y="18" width="1" height="26" fill="#dc2626" />
  <rect x="54" y="14" width="1" height="30" fill="#22c55e" />

  <!-- Candles: bodies -->
  <!-- Green bodies -->
  <rect x="11" y="36" width="3" height="8" fill="#1ea15a" />
  <rect x="17" y="28" width="3" height="12" fill="#1ea15a" />
  <rect x="29" y="20" width="3" height="18" fill="#1ea15a" />
  <rect x="41" y="18" width="3" height="16" fill="#1ea15a" />
  <rect x="53" y="20" width="3" height="12" fill="#1ea15a" />
  <rect x="41" y="16" width="3" height="2" fill="#22c55e" />
  <rect x="29" y="18" width="3" height="2" fill="#22c55e" />
  <rect x="53" y="18" width="3" height="2" fill="#22c55e" />
  <rect x="17" y="26" width="3" height="2" fill="#22c55e" />
  <rect x="11" y="34" width="3" height="2" fill="#22c55e" />

  <!-- Red bodies -->
  <rect x="23" y="30" width="3" height="10" fill="#b11c1c" />
  <rect x="35" y="28" width="3" height="12" fill="#b11c1c" />
  <rect x="47" y="26" width="3" height="12" fill="#b11c1c" />
  <rect x="23" y="28" width="3" height="2" fill="#dc2626" />
  <rect x="35" y="26" width="3" height="2" fill="#dc2626" />
  <rect x="47" y="24" width="3" height="2" fill="#dc2626" />

  <!-- Glow and highlights -->
  <rect x="8" y="8" width="48" height="48" fill="#0c162c" opacity="0.18" />
  <rect x="6" y="6" width="52" height="4" fill="#101d35" opacity="0.65" />
  <rect x="6" y="53" width="52" height="2" fill="#07101f" opacity="0.75" />
  <rect x="6" y="6" width="1" height="50" fill="#0c1a33" />
  <rect x="57" y="6" width="1" height="50" fill="#050a16" />

  <!-- Sparkle bits -->
  <rect x="14" y="10" width="1" height="1" fill="#7dd3fc" />
  <rect x="18" y="8" width="1" height="1" fill="#bae6fd" />
  <rect x="34" y="10" width="1" height="1" fill="#7dd3fc" />
  <rect x="46" y="8" width="1" height="1" fill="#bae6fd" />
  <rect x="50" y="12" width="1" height="1" fill="#7dd3fc" />
  <rect x="28" y="12" width="1" height="1" fill="#7dd3fc" />

  <!-- Outer bevel -->
  <rect x="0" y="0" width="64" height="1" fill="#0f1a32" />
  <rect x="0" y="63" width="64" height="1" fill="#05070d" />
  <rect x="0" y="0" width="1" height="64" fill="#0f1a32" />
  <rect x="63" y="0" width="1" height="64" fill="#05070d" />
</svg>
